<svg width="117" height="117" viewBox="0 0 117 117" fill="none" xmlns="http://www.w3.org/2000/svg">
<g id="man">
<path id="Vector" d="M74.0863 56.7335C71.5815 53.7378 68.7816 51.4613 66.1355 50.009C63.8022 52.5613 60.7128 54.2995 57.32 54.9688C53.9208 55.6211 50.402 55.1674 47.2794 53.6743C45.3706 56.0151 43.6274 59.1747 42.4199 62.8857C39.6108 71.5062 40.6853 79.5799 44.8239 80.928C46.6754 81.5357 48.2895 80.5002 49.7607 78.4052C49.7891 80.3479 49.9904 82.2843 50.3622 84.1913C52.093 93.0955 56.9571 99.6352 61.2179 98.807C63.7871 98.3076 64.5489 95.4333 64.3772 91.2908C65.7667 95.1966 67.5528 97.5756 70.1099 97.0786C74.3798 96.2486 76.4369 88.3636 74.7061 79.4594C74.3164 77.455 73.7623 75.5772 73.0902 73.8704C75.2421 75.2612 77.1265 75.6166 78.6186 74.359C81.9453 71.5629 79.9142 63.6752 74.0791 56.7286L74.0863 56.7335ZM56.7273 51.9355C58.4341 51.6031 60.0587 50.9378 61.5084 49.9775C62.9581 49.0173 64.2044 47.7809 65.1763 46.339C66.1481 44.897 66.8264 43.2778 67.1725 41.5737C67.5186 39.8697 67.5256 38.1141 67.1933 36.4073C66.8609 34.7005 66.1955 33.0759 65.2353 31.6262C64.275 30.1765 63.0387 28.9302 61.5967 27.9583C60.1548 26.9865 58.5356 26.3081 56.8315 25.962C55.1274 25.616 53.3719 25.6089 51.6651 25.9413C49.9581 26.2737 48.3333 26.9391 46.8834 27.8995C45.4336 28.8599 44.1871 30.0964 43.2151 31.5385C41.2521 34.4509 40.5265 38.0239 41.1979 41.4713C41.8692 44.9188 43.8826 47.9583 46.795 49.9213C49.7075 51.8843 53.2804 52.6099 56.7279 51.9385L56.7273 51.9355Z" fill="white"/>
</g>
</svg>
