<svg width="124" height="124" viewBox="0 0 124 124" fill="none" xmlns="http://www.w3.org/2000/svg">
<g id="planet">
<g id="Group">
<path id="Vector" d="M97.2161 70.1634C109.058 81.2097 115.537 90.8301 113.191 95.4801C109.342 103.023 83.3126 94.1419 55.0406 75.6504C26.7789 57.1589 6.96994 36.0531 10.8139 28.5149C13.2113 23.8132 25.9316 26.2209 40.7961 32.6741" stroke="white" stroke-opacity="0.3" stroke-width="4" stroke-linecap="round" stroke-linejoin="round"/>
<path id="Vector_2" d="M25.8335 62C25.8335 66.7495 26.769 71.4525 28.5865 75.8404C30.4041 80.2284 33.0681 84.2154 36.4265 87.5737C39.7849 90.9321 43.7718 93.5961 48.1598 95.4137C52.5477 97.2312 57.2507 98.1667 62.0002 98.1667C66.7496 98.1667 71.4526 97.2312 75.8406 95.4137C80.2285 93.5961 84.2155 90.9321 87.5739 87.5737C90.9322 84.2154 93.5963 80.2284 95.4138 75.8404C97.2314 71.4525 98.1668 66.7495 98.1668 62C98.1668 57.2506 97.2314 52.5476 95.4138 48.1597C93.5963 43.7717 90.9322 39.7847 87.5739 36.4263C84.2155 33.068 80.2285 30.4039 75.8406 28.5864C71.4526 26.7689 66.7496 25.8334 62.0002 25.8334C57.2507 25.8334 52.5477 26.7689 48.1598 28.5864C43.7718 30.4039 39.7849 33.068 36.4265 36.4263C33.0681 39.7847 30.4041 43.7717 28.5865 48.1597C26.769 52.5476 25.8335 57.2506 25.8335 62Z" stroke="white" stroke-opacity="0.3" stroke-width="4" stroke-linecap="round" stroke-linejoin="round"/>
</g>
</g>
</svg>
