<svg width="60" height="60" viewBox="0 0 60 60" fill="none" xmlns="http://www.w3.org/2000/svg">
<g id="planet-earth" clip-path="url(#clip0_1_1001)">
<g id="Group">
<path id="Vector" d="M30.0002 57.8571C45.3853 57.8571 57.8573 45.385 57.8573 30C57.8573 14.6149 45.3853 2.14282 30.0002 2.14282C14.6151 2.14282 2.14307 14.6149 2.14307 30C2.14307 45.385 14.6151 57.8571 30.0002 57.8571Z" stroke="white" stroke-opacity="0.3" stroke-width="4" stroke-linecap="round" stroke-linejoin="round"/>
<path id="Vector_2" d="M4.28613 40.7143H11.7861C13.7753 40.7143 15.6829 39.9241 17.0894 38.5176C18.496 37.1111 19.2861 35.2034 19.2861 33.2143V26.7857C19.2861 24.7966 20.0763 22.8889 21.4828 21.4824C22.8894 20.0759 24.797 19.2857 26.7861 19.2857C28.7753 19.2857 30.6829 18.4956 32.0894 17.089C33.496 15.6825 34.2861 13.7749 34.2861 11.7857V2.44287M57.8576 29.5714C55.7118 28.458 53.3321 27.8705 50.9147 27.8572H41.7861C39.797 27.8572 37.8894 28.6473 36.4828 30.0539C35.0763 31.4604 34.2861 33.368 34.2861 35.3572C34.2861 37.3463 35.0763 39.2539 36.4828 40.6605C37.8894 42.067 39.797 42.8572 41.7861 42.8572C43.2069 42.8572 44.5695 43.4216 45.5742 44.4262C46.5789 45.4309 47.1433 46.7935 47.1433 48.2143V51.9429" stroke="white" stroke-opacity="0.3" stroke-width="4" stroke-linecap="round" stroke-linejoin="round"/>
</g>
</g>
<defs>
<clipPath id="clip0_1_1001">
<rect width="60" height="60" fill="white"/>
</clipPath>
</defs>
</svg>
