<svg width="214" height="214" viewBox="0 0 214 214" fill="none" xmlns="http://www.w3.org/2000/svg">
<g id="rocket" clip-path="url(#clip0_1_944)">
<g id="Vector">
<path d="M81.0462 96.4584C75.6827 98.5921 70.8718 101.912 66.9737 106.169C63.0757 110.426 60.1918 115.511 58.5381 121.041C56.8844 126.571 56.5038 132.404 57.4247 138.102C58.3457 143.801 60.5445 149.217 63.8562 153.944L88.9222 136.393C83.446 123.807 80.7627 110.181 81.0462 96.4584Z" fill="white"/>
<path d="M143.857 119.731C141.651 114.397 138.267 109.632 133.958 105.793C129.53 118.787 122.348 130.665 112.895 140.62L130.446 165.686C135.174 162.376 139.092 158.039 141.906 153C144.72 147.961 146.358 142.351 146.696 136.589C147.033 130.828 146.063 125.064 143.857 119.731Z" fill="white"/>
<path d="M119.074 74.4226C120.529 76.5001 121.099 79.0704 120.658 81.568C120.218 84.0656 118.803 86.2859 116.726 87.7406C114.648 89.1953 112.078 89.7651 109.58 89.3247C107.083 88.8843 104.862 87.4697 103.408 85.3923C101.953 83.3148 101.383 80.7445 101.824 78.2469C102.264 75.7493 103.679 73.529 105.756 72.0743C107.834 70.6196 110.404 70.0498 112.901 70.4902C115.399 70.9306 117.619 72.3451 119.074 74.4226Z" fill="white"/>
<path d="M133.958 105.793C138.267 109.632 141.651 114.397 143.857 119.731C146.063 125.064 147.033 130.828 146.696 136.589C146.358 142.351 144.72 147.961 141.906 153C139.092 158.039 135.174 162.376 130.446 165.686L112.895 140.62M133.958 105.793C138.844 91.5441 140.291 76.3416 138.179 61.427C136.068 46.5124 130.458 32.3089 121.808 19.9766C109.464 28.607 99.3359 40.035 92.2516 53.3272C85.1674 66.6194 81.3277 81.3989 81.0462 96.4584M133.958 105.793C129.53 118.787 122.348 130.665 112.895 140.62M112.895 140.62C112.431 141.108 111.963 141.592 111.49 142.07C104.122 141.631 96.8289 140.345 89.7549 138.238C89.4725 137.625 89.1915 137.012 88.9222 136.393M81.0462 96.4584C75.6827 98.5921 70.8717 101.912 66.9737 106.169C63.0757 110.426 60.1918 115.511 58.5381 121.041C56.8844 126.571 56.5038 132.404 57.4247 138.102C58.3457 143.801 60.5445 149.217 63.8562 153.944L88.9222 136.393M81.0462 96.4584C80.7627 110.181 83.446 123.807 88.9222 136.393M119.074 74.4226C120.529 76.5001 121.099 79.0704 120.658 81.568C120.218 84.0656 118.803 86.2859 116.726 87.7406C114.648 89.1953 112.078 89.7651 109.58 89.3247C107.083 88.8843 104.862 87.4697 103.408 85.3923C101.953 83.3148 101.383 80.7445 101.824 78.2469C102.264 75.7493 103.679 73.529 105.756 72.0743C107.834 70.6196 110.404 70.0498 112.901 70.4902C115.399 70.9306 117.619 72.3451 119.074 74.4226Z" stroke="white" stroke-width="4" stroke-linecap="round" stroke-linejoin="round"/>
</g>
</g>
<defs>
<clipPath id="clip0_1_944">
<rect width="153" height="153" fill="white" transform="translate(0 87.757) rotate(-35)"/>
</clipPath>
</defs>
</svg>
