<svg width="19" height="12" viewBox="0 0 19 12" fill="none" xmlns="http://www.w3.org/2000/svg">
<g id="eye">
<path id="Line 5" d="M9 10.9472C9 11.2233 9.22386 11.4472 9.5 11.4472C9.77614 11.4472 10 11.2233 10 10.9472H9ZM9 7.21053V10.9472H10V7.21053H9Z" fill="#A9A9A9"/>
<path id="Line 7" d="M15.5885 9.56467C15.738 9.79683 16.0434 9.8579 16.2707 9.70107C16.498 9.54423 16.5611 9.22889 16.4115 8.99673L15.5885 9.56467ZM16.4115 8.99673L14.4117 5.8915L13.5886 6.45944L15.5885 9.56467L16.4115 8.99673Z" fill="#A9A9A9"/>
<path id="Line 9" d="M2.58848 8.99671C2.43895 9.22886 2.50197 9.5442 2.72925 9.70105C2.95652 9.85789 3.26198 9.79685 3.41152 9.5647L2.58848 8.99671ZM3.41152 9.5647L5.41166 6.45946L4.58862 5.89148L2.58848 8.99671L3.41152 9.5647Z" fill="#A9A9A9"/>
<path id="Line 8" d="M1 1C1 1 2.40909 7.21053 9.5 7.21053C16.5909 7.21053 18 1 18 1" stroke="#A9A9A9" stroke-linecap="round"/>
</g>
</svg>
