<svg width="20" height="20" viewBox="0 0 20 20" fill="none" xmlns="http://www.w3.org/2000/svg">
<g id="checkbox">
<path id="Vector" d="M19.5 10C19.5 15.2467 15.2467 19.5 10 19.5C4.75329 19.5 0.5 15.2467 0.5 10C0.5 4.75329 4.75329 0.5 10 0.5C15.2467 0.5 19.5 4.75329 19.5 10Z" fill="#B3FFBB" stroke="#414141"/>
<g id="Vector_2">
<mask id="path-2-inside-1_65_81" fill="white">
<path d="M5 10.8L8.14286 14L16 6"/>
</mask>
<path d="M5.71345 10.0993C5.32646 9.70527 4.69332 9.69956 4.29929 10.0866C3.90527 10.4735 3.89956 11.1067 4.28655 11.5007L5.71345 10.0993ZM8.14286 14L7.42941 14.7007C7.61744 14.8922 7.87452 15 8.14286 15C8.4112 15 8.66828 14.8922 8.85631 14.7007L8.14286 14ZM16.7134 6.70071C17.1004 6.30668 17.0947 5.67354 16.7007 5.28655C16.3067 4.89956 15.6735 4.90527 15.2866 5.29929L16.7134 6.70071ZM4.28655 11.5007L7.42941 14.7007L8.85631 13.2993L5.71345 10.0993L4.28655 11.5007ZM8.85631 14.7007L16.7134 6.70071L15.2866 5.29929L7.42941 13.2993L8.85631 14.7007Z" fill="#414141" mask="url(#path-2-inside-1_65_81)"/>
</g>
</g>
</svg>
