<svg width="123" height="31" viewBox="0 0 123 31" fill="none" xmlns="http://www.w3.org/2000/svg">
<path d="M14.7676 10.4512H9.13281V7.73633H23.498V10.4512H17.8633V23H14.7676V10.4512ZM26.8086 7.73633H34.5723C35.7441 7.73633 36.7598 7.86003 37.6191 8.10742C38.4785 8.34831 39.1914 8.69987 39.7578 9.16211C40.3242 9.62435 40.7441 10.1875 41.0176 10.8516C41.2975 11.5156 41.4375 12.2676 41.4375 13.1074C41.4375 13.6738 41.3691 14.2142 41.2324 14.7285C41.0957 15.2363 40.8841 15.7051 40.5977 16.1348C40.3177 16.5645 39.9629 16.9486 39.5332 17.2871C39.1035 17.6191 38.599 17.8958 38.0195 18.1172L41.3398 23H37.5508L34.6797 18.6641H34.5918L29.9043 18.6543V23H26.8086V7.73633ZM34.6504 15.9785C35.2363 15.9785 35.7474 15.9102 36.1836 15.7734C36.6263 15.6367 36.9941 15.4447 37.2871 15.1973C37.5866 14.9499 37.8079 14.6504 37.9512 14.2988C38.1009 13.9408 38.1758 13.5436 38.1758 13.1074C38.1758 12.2546 37.8828 11.597 37.2969 11.1348C36.7109 10.666 35.8288 10.4316 34.6504 10.4316H29.9043V15.9785H34.6504ZM44.5332 7.73633H47.6289V16.1445C47.6289 16.8346 47.7233 17.4499 47.9121 17.9902C48.1009 18.5241 48.3809 18.9766 48.752 19.3477C49.1296 19.7188 49.5951 20.002 50.1484 20.1973C50.7018 20.3861 51.3464 20.4805 52.082 20.4805C52.8112 20.4805 53.4525 20.3861 54.0059 20.1973C54.5658 20.002 55.0312 19.7188 55.4023 19.3477C55.7799 18.9766 56.0632 18.5241 56.252 17.9902C56.4408 17.4499 56.5352 16.8346 56.5352 16.1445V7.73633H59.6309V16.5156C59.6309 17.5182 59.4616 18.4297 59.123 19.25C58.7845 20.0703 58.293 20.7734 57.6484 21.3594C57.0039 21.9453 56.2129 22.3978 55.2754 22.7168C54.3444 23.0358 53.2799 23.1953 52.082 23.1953C50.8841 23.1953 49.8164 23.0358 48.8789 22.7168C47.9479 22.3978 47.1602 21.9453 46.5156 21.3594C45.8711 20.7734 45.3796 20.0703 45.041 19.25C44.7025 18.4297 44.5332 17.5182 44.5332 16.5156V7.73633ZM64.123 18.459C64.6764 18.7715 65.2363 19.0547 65.8027 19.3086C66.3757 19.556 66.9681 19.7676 67.5801 19.9434C68.1921 20.1126 68.8333 20.2428 69.5039 20.334C70.181 20.4251 70.9004 20.4707 71.6621 20.4707C72.5801 20.4707 73.3613 20.4121 74.0059 20.2949C74.6504 20.1712 75.1745 20.0052 75.5781 19.7969C75.9883 19.582 76.2845 19.3281 76.4668 19.0352C76.6556 18.7422 76.75 18.4232 76.75 18.0781C76.75 17.5247 76.5189 17.0885 76.0566 16.7695C75.5944 16.444 74.8815 16.2812 73.918 16.2812C73.4948 16.2812 73.0488 16.3105 72.5801 16.3691C72.1113 16.4212 71.6361 16.4798 71.1543 16.5449C70.679 16.61 70.207 16.6719 69.7383 16.7305C69.276 16.7826 68.8398 16.8086 68.4297 16.8086C67.7461 16.8086 67.0885 16.7207 66.457 16.5449C65.832 16.3691 65.2754 16.1055 64.7871 15.7539C64.3053 15.4023 63.9212 14.9629 63.6348 14.4355C63.3483 13.9082 63.2051 13.293 63.2051 12.5898C63.2051 12.1732 63.2604 11.7598 63.3711 11.3496C63.4883 10.9395 63.6706 10.5488 63.918 10.1777C64.1719 9.80013 64.4974 9.45182 64.8945 9.13281C65.2917 8.80729 65.7702 8.52734 66.3301 8.29297C66.8965 8.05859 67.5475 7.8763 68.2832 7.74609C69.0254 7.60938 69.8685 7.54102 70.8125 7.54102C71.4961 7.54102 72.1829 7.58008 72.873 7.6582C73.5632 7.72982 74.2337 7.83398 74.8848 7.9707C75.5423 8.10742 76.1738 8.27344 76.7793 8.46875C77.3848 8.65755 77.9479 8.86914 78.4688 9.10352L77.1113 11.6035C76.6816 11.4147 76.2194 11.2422 75.7246 11.0859C75.2298 10.9232 74.7122 10.7832 74.1719 10.666C73.6315 10.5488 73.0716 10.4577 72.4922 10.3926C71.9193 10.321 71.3333 10.2852 70.7344 10.2852C69.8815 10.2852 69.1784 10.347 68.625 10.4707C68.0781 10.5944 67.6419 10.7539 67.3164 10.9492C66.9909 11.138 66.763 11.3529 66.6328 11.5938C66.5091 11.8281 66.4473 12.0625 66.4473 12.2969C66.4473 12.7526 66.6523 13.127 67.0625 13.4199C67.4727 13.7064 68.0977 13.8496 68.9375 13.8496C69.276 13.8496 69.6634 13.8268 70.0996 13.7812C70.5423 13.7292 71.0046 13.6738 71.4863 13.6152C71.9746 13.5566 72.4694 13.5046 72.9707 13.459C73.4785 13.4069 73.9701 13.3809 74.4453 13.3809C75.3438 13.3809 76.138 13.4818 76.8281 13.6836C77.5247 13.8854 78.1074 14.1751 78.5762 14.5527C79.0449 14.9238 79.3997 15.3763 79.6406 15.9102C79.8815 16.4375 80.002 17.0299 80.002 17.6875C80.002 18.5664 79.7969 19.3509 79.3867 20.041C78.9831 20.7246 78.4036 21.304 77.6484 21.7793C76.8997 22.248 75.9948 22.6061 74.9336 22.8535C73.8724 23.0944 72.6908 23.2148 71.3887 23.2148C70.5293 23.2148 69.6895 23.1595 68.8691 23.0488C68.0488 22.9447 67.2611 22.7949 66.5059 22.5996C65.7572 22.3978 65.041 22.1602 64.3574 21.8867C63.6803 21.6068 63.0521 21.3008 62.4727 20.9688L64.123 18.459ZM88.0098 10.4512H82.375V7.73633H96.7402V10.4512H91.1055V23H88.0098V10.4512ZM104.729 19.2207L98.0586 7.73633H101.564L106.262 16.418L110.9 7.73633H114.406L107.824 19.2012V23H104.729V19.2207Z" fill="white"/>
<rect x="0.5" y="0.5" width="122" height="30" stroke="white"/>
</svg>
