<svg width="93" height="86" viewBox="0 0 93 86" fill="none" xmlns="http://www.w3.org/2000/svg">
<g id="icon human">
<g id="Group">
<path id="Vector" d="M59.4424 2.44141C63.484 2.44141 67.3601 4.04694 70.218 6.90481C73.0759 9.76268 74.6814 13.6388 74.6814 17.6804C74.6814 21.7221 73.0759 25.5982 70.218 28.456C67.3601 31.3139 63.484 32.9194 59.4424 32.9194M70.279 47.7521C76.0484 49.9468 81.0154 53.8417 84.5227 58.9212C88.03 64.0007 89.9122 70.0255 89.9204 76.1982V83.7161H79.7611" stroke="white" stroke-width="4" stroke-linecap="round" stroke-linejoin="round"/>
<path id="Vector_2" d="M32.3515 32.9194C40.7678 32.9194 47.5905 26.0967 47.5905 17.6804C47.5905 9.26414 40.7678 2.44141 32.3515 2.44141C23.9352 2.44141 17.1125 9.26414 17.1125 17.6804C17.1125 26.0967 23.9352 32.9194 32.3515 32.9194Z" fill="#B3FFBB" stroke="#B3FFBB" stroke-linecap="round" stroke-linejoin="round"/>
<path id="Vector_3" d="M62.8293 83.7161H1.87323V76.9432C1.87323 68.86 5.0843 61.1078 10.8 55.392C16.5158 49.6763 24.268 46.4652 32.3512 46.4652C40.4345 46.4652 48.1867 49.6763 53.9025 55.392C59.6182 61.1078 62.8293 68.86 62.8293 76.9432V83.7161Z" fill="#B3FFBB" stroke="#B3FFBB" stroke-linecap="round" stroke-linejoin="round"/>
</g>
</g>
</svg>
