<svg width="111" height="86" viewBox="0 0 111 86" fill="none" xmlns="http://www.w3.org/2000/svg">
<g id="icons:money" clip-path="url(#clip0_1_189)">
<path id="Vector" d="M14.8229 25.7214H3.43481V82.662H105.928V25.7214H97.3869M74.6106 20.0273C76.8391 21.3159 78.7475 23.0915 80.1932 25.2214C81.639 27.3512 82.5847 29.7803 82.9596 32.327C83.3346 34.8738 83.1291 37.4723 82.3586 39.9285C81.588 42.3847 80.2724 44.6349 78.5099 46.5111C76.7474 48.3873 74.5836 49.8409 72.1804 50.7632C69.7771 51.6856 67.1964 52.0529 64.6312 51.8376C62.0661 51.6224 59.5827 50.8301 57.3667 49.5202C55.1508 48.2102 53.2595 46.4163 51.8344 44.2727" stroke="white" stroke-width="4" stroke-linecap="round" stroke-linejoin="round"/>
<path id="Vector_2" d="M64.4995 17.6713C64.4995 22.2018 62.6998 26.5467 59.4962 29.7502C56.2927 32.9538 51.9478 34.7535 47.4173 34.7535C42.8868 34.7535 38.5419 32.9538 35.3384 29.7502C32.1348 26.5467 30.3351 22.2018 30.3351 17.6713C30.3351 13.1408 32.1348 8.7959 35.3384 5.59237C38.5419 2.38884 42.8868 0.589111 47.4173 0.589111C51.9478 0.589111 56.2927 2.38884 59.4962 5.59237C62.6998 8.7959 64.4995 13.1408 64.4995 17.6713Z" fill="#B3FFBB"/>
</g>
<defs>
<clipPath id="clip0_1_189">
<rect width="109.103" height="86" fill="white" transform="translate(0.948486)"/>
</clipPath>
</defs>
</svg>
