<svg width="97" height="86" viewBox="0 0 97 86" fill="none" xmlns="http://www.w3.org/2000/svg">
<g id="squares">
<path id="Rectangle 124" d="M25.5 61H48.5V84H26.5C25.9477 84 25.5 83.5523 25.5 83V61Z" stroke="white" stroke-width="4"/>
<rect id="Rectangle 125" x="48.5" y="61" width="23" height="23" stroke="white" stroke-width="4"/>
<path id="Rectangle 126" d="M71.5 61H94.5V83C94.5 83.5523 94.0523 84 93.5 84H71.5V61Z" stroke="white" stroke-width="4"/>
<rect id="Rectangle 127" x="71.5" y="38" width="23" height="23" stroke="white" stroke-width="4"/>
<rect id="Rectangle 129" x="48.5" y="38" width="23" height="23" stroke="white" stroke-width="4"/>
<rect id="Rectangle 130" x="39.5" y="6" width="23" height="23" fill="#B3FFBB"/>
<rect id="Rectangle 131" x="0.5" y="36" width="23" height="23" fill="#B3FFBB"/>
<rect id="Rectangle 132" x="0.5" width="23" height="23" fill="#B3FFBB"/>
<path id="Rectangle 128" d="M71.5 15H93.5C94.0523 15 94.5 15.4477 94.5 16V38H71.5V15Z" stroke="white" stroke-width="4"/>
</g>
</svg>
