<svg width="117" height="117" fill="none" xmlns="http://www.w3.org/2000/svg"><path d="M74.086 56.733c-2.504-2.995-5.304-5.272-7.95-6.724a16.19 16.19 0 01-8.816 4.96c-3.4.652-6.918.198-10.04-1.295-1.91 2.341-3.653 5.5-4.86 9.212-2.81 8.62-1.735 16.694 2.404 18.042 1.851.608 3.465-.428 4.937-2.523.028 1.943.23 3.88.601 5.786 1.731 8.904 6.595 15.444 10.856 14.616 2.57-.5 3.33-3.374 3.16-7.516 1.389 3.906 3.175 6.285 5.732 5.788 4.27-.83 6.327-8.715 4.596-17.62a31.92 31.92 0 00-1.616-5.589c2.152 1.391 4.036 1.747 5.529.489 3.326-2.796 1.295-10.684-4.54-17.63l.007.005zm-17.359-4.797a13.24 13.24 0 10-15.53-10.465 13.243 13.243 0 0015.53 10.468v-.004z" fill="#fff"/></svg>