<svg width="60" height="60" fill="none" xmlns="http://www.w3.org/2000/svg"><g stroke="#fff" stroke-opacity=".3" stroke-width="4" stroke-linecap="round" stroke-linejoin="round" clip-path="url(#clip0_1_1001)"><path d="M30 57.857c15.385 0 27.857-12.472 27.857-27.857S45.385 2.143 30 2.143 2.143 14.615 2.143 30 14.615 57.857 30 57.857z"/><path d="M4.286 40.714h7.5a7.5 7.5 0 007.5-7.5v-6.428a7.5 7.5 0 017.5-7.5 7.5 7.5 0 007.5-7.5V2.443M57.858 29.57a15.257 15.257 0 00-6.943-1.714h-9.129a7.5 7.5 0 100 15 5.357 5.357 0 015.357 5.357v3.729"/></g><defs><clipPath id="clip0_1_1001"><path fill="#fff" d="M0 0h60v60H0z"/></clipPath></defs></svg>