<svg width="214" height="214" fill="none" xmlns="http://www.w3.org/2000/svg"><g clip-path="url(#clip0_1_944)"><path d="M81.046 96.458a38.254 38.254 0 00-22.508 24.583 38.25 38.25 0 005.318 32.903l25.066-17.551a95.171 95.171 0 01-7.876-39.935zm62.811 23.273a38.24 38.24 0 00-9.899-13.938 95.131 95.131 0 01-21.063 34.827l17.551 25.066a38.254 38.254 0 0013.411-45.955zm-24.783-45.308a9.562 9.562 0 11-15.666 10.97 9.562 9.562 0 0115.666-10.97z" fill="#fff"/><path d="M133.958 105.793a38.26 38.26 0 0112.738 30.796 38.253 38.253 0 01-16.25 29.097l-17.551-25.066m21.063-34.827a95.499 95.499 0 00-12.15-85.816 95.501 95.501 0 00-40.762 76.481m52.912 9.335a95.131 95.131 0 01-21.063 34.827m0 0c-.464.488-.932.972-1.405 1.45a96.182 96.182 0 01-21.735-3.832 94.795 94.795 0 01-.833-1.845m-7.876-39.935a38.253 38.253 0 00-23.621 41.644 38.242 38.242 0 006.431 15.842l25.066-17.551m-7.876-39.935a95.171 95.171 0 007.876 39.935m30.152-61.97a9.562 9.562 0 11-15.666 10.97 9.562 9.562 0 0115.666-10.97z" stroke="#fff" stroke-width="4" stroke-linecap="round" stroke-linejoin="round"/></g><defs><clipPath id="clip0_1_944"><path fill="#fff" transform="rotate(-35 139.165 43.879)" d="M0 0h153v153H0z"/></clipPath></defs></svg>